<svg width="182" height="44" viewBox="0 0 182 44" fill="none" xmlns="http://www.w3.org/2000/svg">
<path d="M147.682 21.0515C147.682 16.7507 147.725 12.4499 147.854 8.14913C149.187 8.10612 149.962 8.06311 151.381 8.06311C152.628 8.06311 153.746 8.10612 155.123 8.14913C155.338 8.19214 155.467 8.36417 155.596 8.57921L160.025 19.5893L159.896 8.14913C161.23 8.10612 162.219 8.06311 163.638 8.06311C165.1 8.06311 166.348 8.10612 167.638 8.14913C167.853 8.19214 168.068 8.36417 168.068 8.57921C168.154 12.622 168.24 16.7507 168.24 21.0515C168.24 25.3524 168.154 29.6532 168.068 33.954C166.864 34.04 166.133 34.083 164.713 34.083C163.423 34.083 162.176 34.04 160.8 33.954C160.542 33.954 160.413 33.7819 160.326 33.5239L155.854 22.5568L156.026 33.954C154.649 34.04 153.875 34.083 152.456 34.083C150.994 34.083 149.66 34.04 148.284 33.954C148.026 33.954 147.854 33.7819 147.854 33.5239C147.768 29.4811 147.682 25.3524 147.682 21.0515Z" fill="url(#paint0_linear_436_41)"/>
<path d="M121.875 21.0516C121.875 12.622 125.617 8.1492 131.681 7.84814C139.853 7.84814 143.724 11.1168 143.724 21.0516C143.724 29.5242 139.896 33.911 133.832 34.2121C125.617 34.2121 121.875 31.0295 121.875 21.0516ZM130.821 21.0516C130.821 26.1696 131.681 26.7287 132.843 26.7287C134.004 26.7287 134.735 26.1696 134.735 21.0516C134.735 15.9337 133.875 15.3746 132.714 15.3746C131.552 15.3746 130.821 15.9337 130.821 21.0516Z" fill="url(#paint1_linear_436_41)"/>
<path d="M100.404 11.4177C100.404 10.3855 100.404 9.31035 100.447 8.14913C101.781 8.10612 108.963 8.06311 110.382 8.06311C111.844 8.06311 117.823 8.10612 119.285 8.14913C119.5 8.14913 119.672 8.36417 119.715 8.57921C119.715 9.82644 119.715 11.0307 119.715 12.2779C119.715 13.3101 119.715 14.3853 119.715 15.4605C118.984 15.5035 116.704 15.5465 114.468 15.5465C114.511 17.3098 114.554 19.0732 114.554 21.0515C114.554 25.3524 114.468 29.6532 114.382 33.954C113.006 34.04 112.016 34.083 110.597 34.083C109.135 34.083 107.63 34.04 106.21 33.954C105.952 33.954 105.78 33.7819 105.78 33.5239C105.694 29.4811 105.608 25.3524 105.608 21.0515C105.608 19.0732 105.608 17.3098 105.608 15.5035C103.673 15.4605 101.609 15.4175 100.877 15.3745C100.619 15.3745 100.447 15.2024 100.447 14.9444C100.404 13.7402 100.404 12.579 100.404 11.4177Z" fill="url(#paint2_linear_436_41)"/>
<path d="M76.6809 26.5136C76.6809 24.4493 78.0572 22.2128 80.4656 20.8796C78.8743 19.5463 77.9712 17.654 77.9712 15.3315C77.9712 9.43944 81.5408 7.84814 87.5189 7.84814C93.4971 7.84814 97.0667 9.43944 97.0667 15.3315C97.0667 17.654 96.1205 19.5463 94.5723 20.8796C96.9377 22.2128 98.357 24.4493 98.357 26.5136C98.357 33.567 93.5401 34.2981 87.5189 34.2981C81.4978 34.2981 76.6809 33.567 76.6809 26.5136ZM85.1965 25.8255C85.1965 26.9867 85.9276 27.6749 87.5189 27.6749C89.1102 27.6749 89.8414 26.9867 89.8414 25.8255C89.8414 24.6643 88.8522 24.0622 87.5189 24.0622C86.1857 24.0622 85.1965 24.6643 85.1965 25.8255ZM85.4976 15.8907C85.4976 16.9228 86.4007 17.568 87.5189 17.568C88.6371 17.568 89.5403 16.9228 89.5403 15.8907C89.5403 14.7724 88.6802 14.1703 87.5189 14.1703C86.3577 14.1703 85.4976 14.7724 85.4976 15.8907Z" fill="url(#paint3_linear_436_41)"/>
<path d="M53.6597 27.718C53.6597 27.0298 53.6597 26.3417 53.7027 25.6966C55.1649 21.0517 58.5626 11.0738 59.9819 8.06327C61.0571 8.06327 63.6375 8.02026 65.7879 8.02026C67.8953 8.02026 69.9597 8.10628 72.3682 8.14929C72.5832 8.14929 72.7983 8.36433 72.7983 8.57937C72.8843 12.6221 72.9703 16.7509 72.9703 21.0517C72.9703 25.3525 72.8843 29.6533 72.7983 33.9541C71.637 34.0401 70.4758 34.0401 69.3146 34.0401C67.9814 34.0401 66.6481 34.0401 65.3149 33.9541C65.0568 33.9541 64.8848 33.7821 64.8848 33.524C64.8418 32.3628 64.8418 31.1586 64.8418 29.9114C63.3795 29.9114 62.1323 29.9114 61.6162 29.9114C60.1539 29.9114 55.552 29.8684 54.1328 29.8254C53.8747 29.8254 53.7027 29.6533 53.7027 29.3953C53.6597 28.8792 53.6597 28.3201 53.6597 27.718ZM61.5732 23.2021C62.4333 23.2021 63.5945 23.2451 64.8418 23.2451C64.8418 22.514 64.8848 21.8259 64.8848 21.0517C64.8848 19.5034 64.9278 16.6649 65.0568 13.6973C63.8096 17.439 62.6484 20.5786 61.5732 23.2021Z" fill="url(#paint4_linear_436_41)"/>
<path d="M29.6924 21.0516C29.6924 12.622 33.3481 8.1492 39.4122 7.84814C47.5837 7.84814 51.1104 11.1168 51.1104 21.0516C51.1104 29.5242 47.6267 33.911 41.5626 34.2121C33.3481 34.2121 29.6924 31.0295 29.6924 21.0516ZM38.552 21.0516C38.552 26.1696 39.2402 26.7287 40.4014 26.7287C41.5626 26.7287 42.2077 26.1696 42.2077 21.0516C42.2077 15.9337 41.4336 15.3746 40.2724 15.3746C39.1111 15.3746 38.552 15.9337 38.552 21.0516Z" fill="url(#paint5_linear_436_41)"/>
<path d="M8.62402 26.8577C8.62402 20.9226 13.0539 18.8152 16.0214 17.3959C17.5267 16.7078 18.6879 16.1917 18.6879 15.4176C18.6879 14.6434 17.6127 14.2133 16.1934 14.2133C13.613 14.2133 11.4195 15.3315 10.1723 15.9767L9.22614 8.79432C11.2475 8.32123 13.3979 7.84814 15.8064 7.84814C21.6985 7.84814 26.2573 8.36424 26.2573 15.3315C26.2573 20.1915 22.7737 22.1268 20.1502 23.4601C18.5159 24.3202 17.2686 24.9654 17.2686 25.9115V26.6427H17.6987C19.161 26.6427 24.1069 26.6857 25.5692 26.7287C25.7842 26.7287 25.9563 26.9437 25.9993 27.1588C25.9993 28.449 25.9993 29.6532 25.9993 30.9005C25.9993 31.9327 25.9993 32.9649 25.9993 34.0401C24.623 34.1261 19.7631 34.1691 18.3438 34.1691C16.8816 34.1691 10.6454 34.0401 9.22614 33.954C8.96809 33.954 8.79606 33.782 8.79606 33.524C8.66703 30.9005 8.62402 29.4382 8.62402 26.8577Z" fill="url(#paint6_linear_436_41)"/>
<path d="M147.298 17.2115C147.298 12.9107 147.341 8.60985 147.47 4.30904C148.804 4.26603 149.578 4.22302 150.997 4.22302C152.244 4.22302 153.362 4.26603 154.739 4.30904C154.954 4.35205 155.083 4.52408 155.212 4.73912L159.642 15.7492L159.513 4.30904C160.846 4.26603 161.835 4.22302 163.254 4.22302C164.717 4.22302 165.964 4.26603 167.254 4.30904C167.469 4.35205 167.684 4.52408 167.684 4.73912C167.77 8.78188 167.856 12.9107 167.856 17.2115C167.856 21.5123 167.77 25.8131 167.684 30.1139C166.48 30.1999 165.749 30.2429 164.33 30.2429C163.039 30.2429 161.792 30.1999 160.416 30.1139C160.158 30.1139 160.029 29.9418 159.943 29.6838L155.47 18.7167L155.642 30.1139C154.266 30.1999 153.492 30.2429 152.072 30.2429C150.61 30.2429 149.277 30.1999 147.9 30.1139C147.642 30.1139 147.47 29.9418 147.47 29.6838C147.384 25.641 147.298 21.5123 147.298 17.2115Z" fill="#FDF36D"/>
<path d="M121.492 17.2115C121.492 8.78195 125.233 4.30911 131.298 4.00806C139.469 4.00806 143.34 7.27667 143.34 17.2115C143.34 25.6841 139.512 30.0709 133.448 30.372C125.233 30.372 121.492 27.1894 121.492 17.2115ZM130.437 17.2115C130.437 22.3295 131.298 22.8886 132.459 22.8886C133.62 22.8886 134.351 22.3295 134.351 17.2115C134.351 12.0936 133.491 11.5345 132.33 11.5345C131.169 11.5345 130.437 12.0936 130.437 17.2115Z" fill="#FDF36D"/>
<path d="M100.02 7.57765C100.02 6.54546 100.02 5.47026 100.063 4.30904C101.396 4.26603 108.579 4.22302 109.998 4.22302C111.46 4.22302 117.438 4.26603 118.901 4.30904C119.116 4.30904 119.288 4.52408 119.331 4.73912C119.331 5.98635 119.331 7.19058 119.331 8.43781C119.331 9.47001 119.331 10.5452 119.331 11.6204C118.6 11.6634 116.32 11.7064 114.084 11.7064C114.127 13.4698 114.17 15.2331 114.17 17.2115C114.17 21.5123 114.084 25.8131 113.998 30.1139C112.621 30.1999 111.632 30.2429 110.213 30.2429C108.751 30.2429 107.245 30.1999 105.826 30.1139C105.568 30.1139 105.396 29.9418 105.396 29.6838C105.31 25.641 105.224 21.5123 105.224 17.2115C105.224 15.2331 105.224 13.4698 105.224 11.6634C103.289 11.6204 101.224 11.5774 100.493 11.5344C100.235 11.5344 100.063 11.3624 100.063 11.1043C100.02 9.90009 100.02 8.73887 100.02 7.57765Z" fill="#FDF36D"/>
<path d="M76.2969 22.6736C76.2969 20.6092 77.6731 18.3727 80.0816 17.0395C78.4903 15.7062 77.5871 13.8139 77.5871 11.4915C77.5871 5.59935 81.1568 4.00806 87.1349 4.00806C93.113 4.00806 96.6827 5.59935 96.6827 11.4915C96.6827 13.8139 95.7365 15.7062 94.1882 17.0395C96.5537 18.3727 97.9729 20.6092 97.9729 22.6736C97.9729 29.7269 93.156 30.458 87.1349 30.458C81.1138 30.458 76.2969 29.7269 76.2969 22.6736ZM84.8125 21.9854C84.8125 23.1466 85.5436 23.8348 87.1349 23.8348C88.7262 23.8348 89.4573 23.1466 89.4573 21.9854C89.4573 20.8242 88.4682 20.2221 87.1349 20.2221C85.8017 20.2221 84.8125 20.8242 84.8125 21.9854ZM85.1135 12.0506C85.1135 13.0828 86.0167 13.7279 87.1349 13.7279C88.2531 13.7279 89.1563 13.0828 89.1563 12.0506C89.1563 10.9324 88.2961 10.3302 87.1349 10.3302C85.9737 10.3302 85.1135 10.9324 85.1135 12.0506Z" fill="#FDF36D"/>
<path d="M53.2754 23.8777C53.2754 23.1896 53.2754 22.5015 53.3184 21.8564C54.7807 17.2115 58.1783 7.23363 59.5976 4.22306C60.6728 4.22306 63.2533 4.18005 65.4037 4.18005C67.5111 4.18005 69.5754 4.26607 71.9839 4.30908C72.1989 4.30908 72.414 4.52412 72.414 4.73916C72.5 8.78192 72.586 12.9107 72.586 17.2115C72.586 21.5123 72.5 25.8131 72.414 30.1139C71.2528 30.1999 70.0915 30.1999 68.9303 30.1999C67.5971 30.1999 66.2638 30.1999 64.9306 30.1139C64.6725 30.1139 64.5005 29.9419 64.5005 29.6838C64.4575 28.5226 64.4575 27.3184 64.4575 26.0712C62.9952 26.0712 61.748 26.0712 61.2319 26.0712C59.7696 26.0712 55.1677 26.0281 53.7485 25.9851C53.4904 25.9851 53.3184 25.8131 53.3184 25.5551C53.2754 25.039 53.2754 24.4799 53.2754 23.8777ZM61.1889 19.3619C62.049 19.3619 63.2103 19.4049 64.4575 19.4049C64.4575 18.6738 64.5005 17.9856 64.5005 17.2115C64.5005 15.6632 64.5435 12.8247 64.6725 9.85712C63.4253 13.5988 62.2641 16.7384 61.1889 19.3619Z" fill="#FDF36D"/>
<path d="M29.3081 17.2115C29.3081 8.78195 32.9638 4.30911 39.0279 4.00806C47.1995 4.00806 50.7261 7.27667 50.7261 17.2115C50.7261 25.6841 47.2425 30.0709 41.1783 30.372C32.9638 30.372 29.3081 27.1894 29.3081 17.2115ZM38.1678 17.2115C38.1678 22.3295 38.8559 22.8886 40.0171 22.8886C41.1783 22.8886 41.8234 22.3295 41.8234 17.2115C41.8234 12.0936 41.0493 11.5345 39.8881 11.5345C38.7269 11.5345 38.1678 12.0936 38.1678 17.2115Z" fill="#FDF36D"/>
<path d="M8.23999 23.0176C8.23999 17.0825 12.6698 14.9751 15.6374 13.5558C17.1427 12.8677 18.3039 12.3516 18.3039 11.5775C18.3039 10.8033 17.2287 10.3733 15.8094 10.3733C13.2289 10.3733 11.0355 11.4915 9.78828 12.1366L8.8421 4.95423C10.8635 4.48115 13.0139 4.00806 15.4223 4.00806C21.3144 4.00806 25.8733 4.52415 25.8733 11.4915C25.8733 16.3514 22.3896 18.2867 19.7661 19.62C18.1318 20.4801 16.8846 21.1253 16.8846 22.0714V22.8026H17.3147C18.777 22.8026 23.7229 22.8456 25.1852 22.8886C25.4002 22.8886 25.5722 23.1036 25.6152 23.3187C25.6152 24.6089 25.6152 25.8131 25.6152 27.0604C25.6152 28.0926 25.6152 29.1248 25.6152 30.2C24.239 30.286 19.3791 30.329 17.9598 30.329C16.4975 30.329 10.2614 30.2 8.8421 30.114C8.58405 30.114 8.41202 29.9419 8.41202 29.6839C8.283 27.0604 8.23999 25.5981 8.23999 23.0176Z" fill="#FDF36D"/>
<defs>
<linearGradient id="paint0_linear_436_41" x1="88.3118" y1="-1.37408" x2="88.3118" y2="44.706" gradientUnits="userSpaceOnUse">
<stop offset="0.2" stop-color="#E88C03"/>
<stop offset="1" stop-color="#FFBE2D"/>
</linearGradient>
<linearGradient id="paint1_linear_436_41" x1="88.3116" y1="-1.37401" x2="88.3116" y2="44.7061" gradientUnits="userSpaceOnUse">
<stop offset="0.2" stop-color="#E88C03"/>
<stop offset="1" stop-color="#FFBE2D"/>
</linearGradient>
<linearGradient id="paint2_linear_436_41" x1="88.3119" y1="-1.37408" x2="88.3119" y2="44.706" gradientUnits="userSpaceOnUse">
<stop offset="0.2" stop-color="#E88C03"/>
<stop offset="1" stop-color="#FFBE2D"/>
</linearGradient>
<linearGradient id="paint3_linear_436_41" x1="88.3118" y1="-1.37401" x2="88.3118" y2="44.706" gradientUnits="userSpaceOnUse">
<stop offset="0.2" stop-color="#E88C03"/>
<stop offset="1" stop-color="#FFBE2D"/>
</linearGradient>
<linearGradient id="paint4_linear_436_41" x1="88.312" y1="-1.37392" x2="88.312" y2="44.7061" gradientUnits="userSpaceOnUse">
<stop offset="0.2" stop-color="#E88C03"/>
<stop offset="1" stop-color="#FFBE2D"/>
</linearGradient>
<linearGradient id="paint5_linear_436_41" x1="88.3119" y1="-1.37401" x2="88.3119" y2="44.7061" gradientUnits="userSpaceOnUse">
<stop offset="0.2" stop-color="#E88C03"/>
<stop offset="1" stop-color="#FFBE2D"/>
</linearGradient>
<linearGradient id="paint6_linear_436_41" x1="88.3118" y1="-1.37401" x2="88.3118" y2="44.706" gradientUnits="userSpaceOnUse">
<stop offset="0.2" stop-color="#E88C03"/>
<stop offset="1" stop-color="#FFBE2D"/>
</linearGradient>
</defs>
</svg>
